<!-- Generated by IcoMoon.io -->
<svg version="1.1" xmlns="http://www.w3.org/2000/svg" width="1024" height="1024" viewBox="0 0 1024 1024">
<title></title>
<g id="icomoon-ignore">
</g>
<path fill="#5b150f" d="M473.6 1.792c-53.76 9.472-123.136 28.672-137.472 37.888l-5.888 3.84v66.816c0 39.68 1.024 68.608 2.56 71.424 2.56 4.864 118.272 84.48 122.624 84.48 1.536 0 8.96-4.864 16.64-10.496 10.496-7.936 14.592-12.8 15.616-18.688 0.768-4.352 1.024-59.136 0.768-121.856-0.768-123.904 0.256-115.968-14.848-113.408z"></path>
<path fill="#5b150f" d="M531.712 77.056c-2.304 101.632-2.304 161.536 0.256 165.376 2.816 4.608 29.184 23.808 32.256 23.808 1.536 0 29.44-18.176 61.696-40.448l58.88-40.448 1.536-15.36c1.024-8.192 1.792-39.68 2.048-69.632 0.256-50.432 0-54.528-4.608-59.136-9.472-9.472-81.664-29.696-141.312-39.68l-9.216-1.536-1.536 77.056z"></path>
<path fill="#5b150f" d="M263.68 84.992c-14.592 11.264-27.648 21.504-28.672 23.296s-2.048 29.184-2.048 61.184v58.368l27.648-18.176c15.104-9.984 28.16-18.944 29.44-19.968 1.024-1.024 1.536-29.44 1.28-63.488l-0.768-61.44-26.88 20.224z"></path>
<path fill="#5b150f" d="M727.040 126.464v62.208l27.648 18.432c15.104 9.984 28.416 18.176 29.44 18.176s1.536-26.624 1.28-59.392l-0.768-59.136-28.672-21.504-28.928-21.248v62.464z"></path>
<path fill="#5b150f" d="M645.888 258.048l-59.648 42.752v21.504c0 16.64 0.768 20.992 3.328 19.968 1.792-0.768 23.040-14.592 47.104-30.976s45.824-29.696 48.64-29.696c2.56 0 17.92 9.472 34.048 20.992 28.16 19.712 49.152 31.488 60.16 33.28 4.864 0.768 5.12-0.768 5.888-28.416 0.512-20.736-0.256-30.208-2.56-33.024-1.792-2.048-18.944-15.36-37.888-29.44s-35.84-26.368-37.12-27.648c-1.536-1.024-27.904 16.128-61.952 40.704z"></path>
<path fill="#5b150f" d="M272.64 246.528l-38.4 28.672-0.768 28.928c-0.512 24.064 0 28.928 3.328 30.208 6.912 2.816 28.416-8.192 61.952-31.232 17.92-12.288 33.792-22.272 35.328-22.272 1.792 0 24.576 14.592 50.944 32.512l47.616 32.512v-21.504c0-18.944-0.768-22.016-5.632-26.624-10.496-9.472-110.080-80.128-113.152-80.128-1.536 0-19.968 13.056-41.216 28.928z"></path>
<path fill="#5b150f" d="M488.448 286.464c-17.664 13.568-19.968 17.408-19.968 36.608v12.288h76.8v-34.816l-16.896-12.288c-9.216-6.656-18.432-12.8-19.968-13.312-1.792-0.768-10.752 4.608-19.968 11.52z"></path>
<path fill="#5b150f" d="M307.712 342.016l-21.248 16.896 5.888 4.352c25.856 19.712 88.832 64.256 90.624 64.256 1.28-0.256 11.264-8.704 22.272-18.944l20.224-18.688-16.384-11.52c-24.32-17.152-78.080-53.248-79.104-53.248-0.512 0.256-10.496 7.68-22.272 16.896z"></path>
<path fill="#5b150f" d="M640.256 357.632l-47.104 32.256 20.224 18.688c11.008 10.24 21.504 18.688 22.784 18.688 3.584 0 91.648-64.512 92.672-67.84 0.768-2.304-37.376-34.304-40.704-34.304-0.512 0-22.016 14.592-47.872 32.512z"></path>
<path fill="#5b150f" d="M470.272 372.992c-1.024 0.768-1.792 30.72-1.792 66.304v64.768l19.968 16.64c10.752 8.96 20.992 15.616 22.784 14.848 1.536-1.024 9.984-8.448 18.432-16.384l15.616-14.848v-133.12h-36.608c-20.224 0-37.632 0.768-38.4 1.792z"></path>
<path fill="#5b150f" d="M239.872 389.632l-7.168 5.888 1.536 89.6 49.92 36.352c27.392 20.224 51.968 37.12 54.272 37.888 3.072 1.024 17.664-8.448 46.080-29.696 23.040-16.896 43.776-33.28 46.336-36.096 3.584-4.096 4.352-9.984 4.352-30.464 0-13.824-0.768-25.344-1.536-25.344-1.024 0-12.288 7.424-24.832 16.64-12.8 9.216-24.832 16.128-26.368 15.616-1.792-0.768-31.232-19.968-65.28-42.752-34.304-22.784-64-41.984-66.304-42.496-2.048-0.512-7.168 1.792-11.008 4.864z"></path>
<path fill="#5b150f" d="M701.44 427.52c-35.84 23.808-65.792 43.52-66.816 43.52s-11.776-7.424-24.32-16.64c-12.288-8.96-23.296-15.872-24.576-15.104-1.024 0.768-2.048 12.032-2.048 25.088 0 19.2 1.024 25.088 4.608 29.184 6.912 7.936 87.040 67.072 90.624 67.072 2.816 0 90.88-63.232 102.656-73.472 3.84-3.584 4.352-9.216 4.352-44.8 0-30.72-1.024-42.496-3.84-47.872-3.328-6.4-8.448-10.496-13.824-10.496-0.768 0-30.976 19.456-66.816 43.52z"></path>
<path fill="#5b150f" d="M232.96 661.248v131.328l26.624 24.832 26.88 24.832 0.768-125.952c0.512-69.376 0-130.816-1.024-136.448-1.792-11.008-7.168-16.64-36.352-37.888l-16.896-12.032v131.328z"></path>
<path fill="#5b150f" d="M757.76 550.656c-13.312 9.728-25.088 19.456-26.112 21.504-1.28 1.792-1.792 64-1.536 137.728l0.768 134.4 55.040-52.48v-129.792c0-71.168-0.768-129.536-1.792-129.536-1.28 0.256-13.056 8.192-26.368 18.176z"></path>
<path fill="#5b150f" d="M391.68 572.416c-26.112 18.944-49.92 36.864-52.992 39.424l-5.888 5.12v128c0 141.568-0.512 136.448 16.896 154.88 5.12 5.632 15.104 16.384 22.016 23.808 6.912 7.168 13.056 13.312 13.824 13.312 0.512 0 1.024-60.928 1.024-135.424s0.768-137.216 1.536-139.52c1.792-4.608 39.168-36.096 49.152-41.472 4.864-2.56 11.264-3.328 22.528-2.048 26.368 2.56 26.624 2.304 26.624-27.136v-25.344l-19.712-14.080c-11.008-7.936-21.76-14.080-23.808-14.080s-25.088 15.616-51.2 34.56z"></path>
<path fill="#5b150f" d="M554.24 550.656c-9.728 6.912-19.456 14.592-20.992 16.896-2.048 2.816-3.328 12.8-3.328 26.88v22.528h18.944c10.24 0 22.272 0.768 26.624 1.536s18.688 10.496 32.256 21.76l24.576 20.224 1.28 278.272 23.040-25.344c12.8-14.080 24.32-27.904 26.112-30.976 2.304-4.096 3.072-38.4 3.072-134.912 0.256-71.168-0.768-130.56-1.792-132.096-1.536-2.304-41.984-32.256-91.648-68.352-7.424-5.12-14.848-9.472-16.64-9.472-2.048 0.256-11.52 5.888-21.504 13.056z"></path>
<path fill="#5b150f" d="M445.44 665.344c-17.408 9.216-18.176 11.52-17.408 46.080l0.768 31.232 30.72-23.040 46.080-0.256c50.432 0 48.128-0.512 70.144 17.408l10.496 8.704v-31.744c0-35.328 0-35.328-20.736-47.616-8.704-5.376-12.544-5.632-60.16-5.632-44.544 0.256-51.968 0.768-59.904 4.864z"></path>
<path fill="#5b150f" d="M457.728 780.544c-14.848 10.752-27.904 21.76-28.672 24.576s-1.536 40.704-1.792 84.48c-0.512 88.064-0.256 89.856 16.128 101.632 4.608 3.072 15.616 11.776 24.064 19.2l15.872 13.312 1.792-72.192c0.768-39.68 1.28-98.816 0.768-131.328l-0.768-59.392-27.392 19.712z"></path>
<path fill="#5b150f" d="M532.992 890.88c0.768 70.4 2.048 128.768 2.816 129.536 0.768 1.024 13.568-8.448 28.416-20.736l27.136-22.528v-83.456c0-61.952-1.024-84.992-3.328-89.856-3.072-5.888-48.896-40.704-54.016-40.96-1.28 0-1.792 53.76-1.024 128z"></path>
</svg>
